<?xml version="1.0" encoding="utf-8"?>
<!-- Generator: Adobe Illustrator 21.0.2, SVG Export Plug-In . SVG Version: 6.00 Build 0)  -->
<svg version="1.1" id="Layer_1" xmlns="http://www.w3.org/2000/svg" xmlns:xlink="http://www.w3.org/1999/xlink" x="0px" y="0px"
	 viewBox="0 0 69.6 53.7" style="enable-background:new 0 0 69.6 53.7;" xml:space="preserve">
<g>
	<path d="M57.2,30.3c1.2-2.3,1.7-4.9,1.5-7.5c-0.3-3.6-2-6.8-4.8-9.1c-2.8-2.3-6.3-3.4-9.9-3.1c-4.9,0.4-9.1,3.5-11.1,7.9
		c0,0.1-0.1,0.2-0.1,0.2c-1.9-0.7-3.8-1-5.8-1c-7.3,0-13.7,4.4-16.3,11.1C4.6,29.8,0,35,0,41.2c0,6.9,5.6,12.5,12.5,12.5h34.8
		c7.4,0,13.5-6.1,13.5-13.5c0-3.7-1.5-7-3.9-9.5C57,30.6,57.1,30.5,57.2,30.3z M35.7,19.8c1.5-3.5,4.9-5.8,8.6-6.2
		c2.8-0.3,5.5,0.6,7.7,2.4s3.5,4.3,3.7,7.1c0.2,2-0.2,4-1.1,5.8c0,0,0,0,0,0c-1.7-1.1-3.6-1.8-5.7-2.1c-2.2-2.9-5.8-4.5-9.5-4
		c-1.1-1.1-2.4-2.1-3.8-2.8C35.6,19.9,35.6,19.9,35.7,19.8z M47.3,50.7H12.5c-5.2,0-9.5-4.3-9.5-9.5c0-5,3.9-9.2,8.9-9.5l1-0.1
		l0.3-1c2-6,7.5-10,13.8-10c4.1,0,7.9,1.7,10.7,4.7l0.6,0.6l0.8-0.2c3.1-0.6,6.1,0.7,7.7,3.2l0.4,0.6l0.7,0
		c5.5,0.3,9.8,4.9,9.8,10.5C57.8,46,53,50.7,47.3,50.7z"/>
	<path d="M43.5,8.9c0,0,0.1,0,0.1,0c0.8-0.1,1.4-0.8,1.4-1.6l-0.5-5.9c-0.1-0.8-0.8-1.4-1.6-1.4c-0.8,0.1-1.4,0.8-1.4,1.6L42,7.5
		C42.1,8.3,42.7,8.9,43.5,8.9z"/>
	<path d="M67.9,20.9l-5.9,0.5c-0.8,0.1-1.4,0.8-1.4,1.6c0.1,0.8,0.7,1.4,1.5,1.4c0,0,0.1,0,0.1,0l5.9-0.5c0.8-0.1,1.4-0.8,1.4-1.6
		C69.5,21.4,68.8,20.8,67.9,20.9z"/>
	<path d="M58.8,17.5c0.3,0.5,0.8,0.8,1.3,0.8c0.2,0,0.5-0.1,0.7-0.2l2.6-1.4c0.7-0.4,1-1.3,0.6-2c-0.4-0.7-1.3-1-2-0.6l-2.6,1.4
		C58.7,15.9,58.4,16.8,58.8,17.5z"/>
	<path d="M49.8,9.9c0.2,0,0.3,0.1,0.5,0.1c0.6,0,1.2-0.4,1.4-1l0.9-2.8c0.3-0.8-0.2-1.6-1-1.9c-0.8-0.3-1.6,0.2-1.9,1L48.9,8
		C48.6,8.8,49,9.7,49.8,9.9z"/>
	<path d="M36.1,10.2c0.3,0.5,0.8,0.8,1.3,0.8c0.2,0,0.5-0.1,0.7-0.2c0.7-0.4,1-1.3,0.7-2l-1.3-2.6c-0.4-0.7-1.3-1-2-0.6
		c-0.7,0.4-1,1.3-0.7,2L36.1,10.2z"/>
	<path d="M64.5,29.1l-2.8-0.9c-0.8-0.3-1.6,0.2-1.9,1c-0.3,0.8,0.2,1.6,1,1.9l2.8,0.9c0.2,0,0.3,0.1,0.5,0.1c0.6,0,1.2-0.4,1.4-1
		C65.7,30.2,65.3,29.3,64.5,29.1z"/>
	<path d="M56.1,12.8c0.4,0,0.9-0.2,1.2-0.5L61,7.7c0.5-0.6,0.4-1.6-0.2-2.1c-0.6-0.5-1.6-0.4-2.1,0.2l-3.8,4.5
		c-0.5,0.6-0.4,1.6,0.2,2.1C55.4,12.7,55.7,12.8,56.1,12.8z"/>
	<path d="M30.9,14.7c0.3,0.2,0.6,0.3,1,0.3c0.4,0,0.9-0.2,1.2-0.5c0.5-0.6,0.4-1.6-0.2-2.1l-4.5-3.8c-0.6-0.5-1.6-0.4-2.1,0.2
		s-0.4,1.6,0.2,2.1L30.9,14.7z"/>
</g>
</svg>
