<?xml version="1.0" encoding="utf-8"?>
<!-- Generator: Adobe Illustrator 21.0.2, SVG Export Plug-In . SVG Version: 6.00 Build 0)  -->
<svg version="1.1" id="Layer_1" xmlns="http://www.w3.org/2000/svg" xmlns:xlink="http://www.w3.org/1999/xlink" x="0px" y="0px"
	 viewBox="0 0 83.2 80.1" style="enable-background:new 0 0 83.2 80.1;" xml:space="preserve">
<style type="text/css">
	.st0{stroke:#231F20;stroke-width:4;stroke-linecap:round;stroke-linejoin:round;stroke-miterlimit:10;}
	.st1{fill:none;}
</style>
<path class="st0" d="M60.2,4.1"/>
<path d="M83,38c0.6-2-0.1-4.3-1.7-5.9c0.3-1.4,0.4-3.7-0.8-5.7c-1.3-2.1-3.6-3.4-7-3.9c-0.3-1.2-0.7-2.4-1.5-3.5
	c-1.6-2.4-4-3.9-7.2-4.5C57.1,13,52.7,16.9,50.9,20c-3.1-0.7-6.1-0.1-7.6,0.8c-3.6,2.1-4.7,5-4.8,7.3c-1.1,0.2-2.1,0.6-2.9,1
	c0,1.6,0.2,3.2,0.5,4.8c0.7-1.2,2.3-1.9,4.7-2c0.6,0,1.2-0.3,1.5-0.8s0.5-1.1,0.3-1.7c-0.1-0.3-0.7-3,2.7-5c0.9-0.5,5.1-1.4,7.9,1.5
	c0.8,0.8,2,0.8,2.8,0.1c0.8-0.8,0.8-2,0.1-2.8c-0.5-0.5-1-0.9-1.5-1.3c1.1-1.6,3.8-4.4,9.4-3.3c7,1.4,5.9,8.4,5.7,9.2
	c-0.2,1.1,0.5,2.1,1.6,2.4c0.1,0,0.3,0,0.4,0c0.9,0,1.8-0.7,2-1.6c0-0.1,0.1-0.8,0.2-1.8c1.3,0.3,2.6,0.8,3.2,1.9
	c0.9,1.5,0.1,3.6,0.1,3.6c-0.4,0.9-0.1,1.9,0.8,2.5c1.1,0.7,1.4,1.7,1.2,2.3c-0.2,0.8-1.5,1.3-3.2,1.3H37.6c-0.1,0-0.2,0-0.3-0.1
	c0.5,1.2,1,2.3,1.7,3.5c0.1,0.2,0.2,0.4,0.4,0.6H76C79.6,42.1,82.2,40.6,83,38z"/>
<path class="st0" d="M80,49.1"/>
<path class="st1" d="M36.3,55.4c3.5-0.9,7-0.2,8.7,0.8c4.1,2.4,5.3,5.8,5.4,8.3c2.9,0.5,4.8,1.7,6,3.2c2.7-0.7,5.3-1.8,7.7-3.2
	c4.1-2.3,7.5-5.4,10.1-9.1c-4.1,2-8.5,3-13,3c-10.6,0-20.5-5.7-25.8-14.9c-0.5-0.9-1-1.8-1.4-2.8c-1.1-2.4-1.8-4.8-2.2-7.3
	c-1.7-11.1,3-22.8,12.8-29.4c-4.5,0.5-9,1.9-13,4.2C24.1,12.6,18.8,19.6,16.5,28c-2,7.3-1.3,14.9,1.7,21.7c0.8-0.3,1.6-0.5,2.4-0.7
	C29.4,47.3,34.4,52,36.3,55.4z"/>
<path d="M81.1,47.5c-0.8-0.5-1.8-0.5-2.5,0.2c-1.4,1.3-2.9,2.4-4.5,3.3c-3.9,2.3-8.3,3.5-12.8,3.5c-8.9,0-17.3-4.7-21.9-12.3
	c-0.1-0.2-0.3-0.4-0.4-0.6c-0.6-1.1-1.2-2.3-1.7-3.5c-0.5-1.4-1-2.8-1.3-4.2c-0.3-1.6-0.5-3.2-0.5-4.8c-0.1-9,4.5-17.8,12.9-22.6
	c1.6-0.9,3.3-1.7,5.1-2.2C54.4,4,55,3.2,54.9,2.2c-0.1-0.9-0.8-1.7-1.7-1.8c-8.1-1.2-16.4,0.4-23.5,4.5c-8.4,4.9-14.5,12.7-17,22.2
	c-2.2,8.3-1.5,17,2.1,24.8c1-0.8,2.2-1.5,3.5-2c-3.1-7-3.7-14.6-1.8-21.9c2.2-8.4,7.6-15.4,15.1-19.7c4-2.3,8.4-3.7,13-4.2
	c-9.8,6.6-14.5,18.3-12.7,29.5c0.4,2.5,1.1,4.9,2.2,7.3c0.4,0.9,0.9,1.9,1.4,2.8c5.3,9.2,15.2,14.9,25.8,14.9c4.5,0,9-1,13-3
	c-2.7,3.7-6.1,6.8-10.1,9.1c-2.4,1.4-5,2.5-7.7,3.2c0.9,1.1,1.4,2.4,1.6,3.7c2.8-0.8,5.5-2,8.1-3.4c7.2-4.1,12.6-10.4,15.7-18.1
	C82.2,49,81.9,48,81.1,47.5z"/>
<path d="M58.1,71.4c-0.2-1.3-0.7-2.6-1.6-3.7c-1.2-1.5-3.2-2.7-6-3.2c-0.1-2.5-1.3-5.9-5.4-8.3c-1.7-1-5.2-1.7-8.7-0.8
	c-1.9-3.4-6.9-8.1-15.6-6.4c-0.9,0.2-1.7,0.4-2.4,0.7c-1.3,0.5-2.5,1.2-3.5,2c-0.8,0.7-1.5,1.5-2.1,2.3c-0.9,1.3-1.4,2.8-1.7,4.1
	c-3.9,0.5-6.6,2-8,4.4c-1.4,2.3-1.2,4.9-0.8,6.5c-1.9,1.8-2.7,4.3-2,6.5c0.8,2.9,3.7,4.6,7.8,4.6H52c3.4,0,6.4-3.4,6.5-7.4
	C58.2,72.3,58.1,71.9,58.1,71.4z M51.7,76.1H7.9c-2.2,0-3.7-0.6-4-1.7c-0.3-1,0.4-2.3,1.5-3c0.8-0.5,1.1-1.6,0.8-2.5
	c0,0-1-2.5,0.1-4.4c0.8-1.3,2.5-2,4.2-2.3c0,1.3,0.2,2.2,0.2,2.3c0.2,0.9,1,1.6,2,1.6c0.1,0,0.3,0,0.4,0c1.1-0.2,1.8-1.3,1.6-2.4
	c0,0-0.8-4.4,1.3-7.6c0.2-0.3,0.5-0.6,0.8-0.9c0.9-0.9,2-1.6,3.4-2.1c0.4-0.1,0.8-0.2,1.3-0.3c6.9-1.3,10.1,2.3,11.2,4.1
	c-0.7,0.4-1.3,1-1.9,1.6c-0.8,0.8-0.7,2.1,0.1,2.8c0.8,0.8,2.1,0.7,2.8-0.1c3.3-3.5,8.3-2.3,9.4-1.7c4.1,2.4,3.4,5.7,3.3,6
	c-0.2,0.6-0.1,1.2,0.3,1.7s0.9,0.8,1.5,0.8c1,0,2,0.2,2.8,0.4c2,0.6,3.2,1.9,3.3,3.6c0,0.1,0,0.2,0,0.3
	C54.1,74.4,52.9,76.1,51.7,76.1z"/>
</svg>
