<?xml version="1.0" encoding="utf-8"?>
<!-- Generator: Adobe Illustrator 21.0.2, SVG Export Plug-In . SVG Version: 6.00 Build 0)  -->
<svg version="1.1"
	 id="Layer_1" xmlns:cc="http://creativecommons.org/ns#" xmlns:dc="http://purl.org/dc/elements/1.1/" xmlns:inkscape="http://www.inkscape.org/namespaces/inkscape" xmlns:rdf="http://www.w3.org/1999/02/22-rdf-syntax-ns#" xmlns:sodipodi="http://sodipodi.sourceforge.net/DTD/sodipodi-0.dtd" xmlns:svg="http://www.w3.org/2000/svg"
	 xmlns="http://www.w3.org/2000/svg" xmlns:xlink="http://www.w3.org/1999/xlink" x="0px" y="0px" viewBox="0 0 72.1 48"
	 style="enable-background:new 0 0 72.1 48;" xml:space="preserve">
<g transform="translate(0,-952.36218)">
	<path d="M35.9,952.4c-1,0.1-1.8,1-1.8,2v11c0,1.1,0.9,2,2,2c1.1,0,2-0.9,2-2c0,0,0,0,0-0.1v-11c0-1.1-0.9-2-2-2
		C36.1,952.4,36,952.4,35.9,952.4z M13.8,958.4c-1.1,0.1-1.9,1.1-1.8,2.2c0,0.3,0.1,0.5,0.3,0.8l5,9c0.5,1,1.8,1.3,2.7,0.8
		s1.3-1.8,0.8-2.7l-5-9C15.5,958.7,14.7,958.3,13.8,958.4z M25.8,958.4c-1.1,0.1-1.9,1.1-1.7,2.2c0,0.1,0.1,0.3,0.1,0.4l2,6
		c0.4,1.1,1.5,1.6,2.5,1.3c1.1-0.4,1.6-1.5,1.3-2.5c0,0,0,0,0,0l-2-6C27.7,958.8,26.8,958.2,25.8,958.4z M45.9,958.4
		c-0.8,0.1-1.5,0.6-1.7,1.4l-2,6c-0.4,1.1,0.2,2.2,1.3,2.5c1.1,0.4,2.2-0.2,2.5-1.3c0,0,0,0,0,0l2-6c0.4-1-0.2-2.2-1.2-2.6
		C46.5,958.4,46.2,958.3,45.9,958.4z M57.9,958.4c-0.7,0.1-1.3,0.5-1.6,1.1l-5,9c-0.5,1-0.2,2.2,0.8,2.7s2.2,0.2,2.7-0.8l5-9
		c0.6-1,0.2-2.2-0.7-2.7C58.8,958.4,58.3,958.3,57.9,958.4z M7.9,968.4c-1.1,0.1-1.9,1.1-1.8,2.2c0,0.5,0.3,0.9,0.6,1.3l4,4
		c0.8,0.8,2,0.8,2.8,0s0.8-2,0-2.8c0,0,0,0-0.1-0.1l-4-4C9.1,968.5,8.5,968.3,7.9,968.4z M63.8,968.4c-0.4,0.1-0.8,0.3-1.2,0.6l-4,4
		c-0.8,0.8-0.8,2-0.1,2.8c0.8,0.8,2,0.8,2.8,0.1c0,0,0,0,0.1-0.1l4-4c0.8-0.8,0.8-2,0.1-2.8C65.1,968.5,64.5,968.3,63.8,968.4z
		 M36.1,970.4c-14.8,0-26.9,11.5-27.9,26H2.1c-0.1,0-0.1,0-0.2,0c-1.1,0.1-2,1-1.9,2.1s1,2,2.1,1.9h68c1.1,0,2-0.9,2-2
		c0-1.1-0.9-2-2-2c0,0,0,0-0.1,0H64C63,981.9,50.9,970.4,36.1,970.4z M36.1,974.4c12.6,0,22.9,9.7,23.9,22H12.2
		C13.2,984.1,23.5,974.4,36.1,974.4z M2,976.4c-1.1,0.1-1.9,1-1.9,2.1c0,0.7,0.4,1.3,1,1.6l5,3c0.9,0.7,2.1,0.5,2.8-0.4
		c0.7-0.9,0.5-2.1-0.4-2.8c-0.1-0.1-0.2-0.1-0.3-0.2l-5-3C2.8,976.5,2.4,976.4,2,976.4z M69.9,976.4c-0.3,0-0.6,0.1-0.9,0.3l-5,3
		c-1,0.5-1.4,1.7-0.9,2.7c0.5,1,1.7,1.4,2.7,0.9c0.1-0.1,0.2-0.1,0.3-0.2l5-3c1-0.6,1.3-1.8,0.7-2.7
		C71.5,976.7,70.7,976.3,69.9,976.4z"/>
</g>
</svg>
