<?xml version="1.0" encoding="utf-8"?>
<!-- Generator: Adobe Illustrator 21.0.2, SVG Export Plug-In . SVG Version: 6.00 Build 0)  -->
<svg version="1.1" id="Layer_1" xmlns="http://www.w3.org/2000/svg" xmlns:xlink="http://www.w3.org/1999/xlink" x="0px" y="0px"
	 viewBox="0 0 100 100" style="enable-background:new 0 0 100 100;" xml:space="preserve">
<style type="text/css">
	.st0{fill:#231F20;}
</style>
<path class="st0" d="M45.1,97.9c6.8-2.6,12.3-7.2,16-12.9C47.3,89.7,32,82.4,27.1,68.5C22.2,55,29,40,42.1,34.6
	c-6.6-1.8-13.7-1.7-20.6,0.9C4.4,42-4.3,61.3,2.1,78.4C8.6,95.6,27.9,104.3,45.1,97.9z"/>
<path class="st0" d="M78.9,82L78.9,82l0.2,0.4l0.2,0.4c0.7,1.5,0.5,4-0.4,5.4l-0.2,0.3l-1.9,2.9l3-0.3h0l0.4,0l0.4,0
	c1.7-0.1,3.9,0.8,5,2.1l0.3,0.3l0.3,0.3l1.9,2.4l0.8-3.4l0.1-0.4c0.4-1.6,2-3.5,3.5-4.1l0.4-0.2l0.4-0.1l0,0l2.8-1.1l-2.6-1.6L93,85
	l-0.3-0.2c-1.4-0.9-2.7-2.9-2.8-4.6l0-0.2l0-0.6v0l-0.2-3l-2.3,2v0l-0.5,0.4l-0.1,0.1c-1.3,1.1-3.6,1.7-5.3,1.2l-0.8-0.2l-3-0.8
	L78.9,82z"/>
<path class="st0" d="M83.8,11.3l0.4,0.2l0.4,0.2c1.5,0.7,3,2.7,3.2,4.3l0.1,0.4l0.5,3.4l2.1-2.2l0.3-0.3l0.3-0.3
	c1.2-1.2,3.5-2,5.1-1.7l0.4,0.1l0.4,0.1h0l3,0.5l-1.7-3l-0.2-0.4c-0.8-1.5-0.8-3.9-0.1-5.4l0.2-0.4l0.2-0.4l1.4-2.7l-3,0.6h0
	l-0.4,0.1L96,4.3c-1.6,0.3-4-0.4-5.2-1.6l-0.1-0.1l-0.4-0.4l0,0L88.1,0l-0.4,3v0l-0.1,0.6l0,0.2c-0.2,1.7-1.6,3.6-3.1,4.4l-0.7,0.4
	v0L81.1,10L83.8,11.3L83.8,11.3z"/>
<path class="st0" d="M54.9,45.9l0.4,0.4c1.7,1.7,2.8,5,2.4,7.4l-0.1,0.6l-0.8,4.9l3.9-2l0.5-0.3l0.5-0.3c2.1-1.1,5.7-1.1,7.8,0
	l0.5,0.3l0.5,0.3h0l3.9,2l-0.8-4.9l-0.1-0.6c-0.4-2.4,0.7-5.7,2.4-7.4l0.4-0.4l0.4-0.4l3.2-3.1l-4.4-0.6h0l-1.2-0.2
	c-2.4-0.4-5.2-2.4-6.3-4.6L68,36.9L67.6,36v0l-1.9-3.9l-2,3.9v0l-0.4,0.8l-0.1,0.2c-1.1,2.2-3.9,4.2-6.3,4.6l-0.6,0.1l-0.6,0.1
	l-4.4,0.6l3.2,3.1L54.9,45.9z"/>
<path class="st0" d="M8.8,16.7L7,19.6l3-0.3l0.4,0l0.4,0c1.7-0.1,3.9,0.8,5,2.1l0.3,0.3l0.3,0.3h0l1.9,2.4l0.8-3.4l0.1-0.4
	c0.4-1.6,2-3.5,3.5-4.1l0.4-0.2l0.4-0.1v0l2.8-1.1l-2.6-1.6l-0.3-0.2L22.9,13c-1.4-0.9-2.7-2.9-2.8-4.6l0-0.2l0-0.6v0l-0.2-3l-2.3,2
	l0,0L17.1,7L17,7.1c-1.3,1.1-3.6,1.7-5.3,1.2l-0.8-0.2L8,7.4l1.2,2.8v0l0.2,0.4L9.5,11c0.7,1.5,0.5,4-0.4,5.4L8.8,16.7z"/>
</svg>
