<svg xmlns="http://www.w3.org/2000/svg" viewBox="0 0 90 81.19"><title>user</title><g id="Layer_2" data-name="Layer 2" data-author="Created by Wilson Joseph from the Noun Project"><g id="Layer_1-2" data-name="Layer 1"><path d="M72,55.93a7.22,7.22,0,1,0,7.22,7.22A7.22,7.22,0,0,0,72,55.93Z" style="fill:none"/><path d="M55.39,70.47l.46-.65L55,69.68a4.35,4.35,0,0,1-3.81-4.35V61a4.38,4.38,0,0,1,3.84-4.36l.79-.13-.49-.68A4.35,4.35,0,0,1,55.75,50l.1-.1a26.56,26.56,0,0,1-8.24-4.38c-.06,2.4-5.24,4.33-11.62,4.33s-11.56-1.94-11.62-4.33C9.77,56.8,0,43.68,0,70.36c0,7.31,19.51,10.83,35.91,10.83h.14A106.12,106.12,0,0,0,58.4,78.93l-2.66-2.66A4.38,4.38,0,0,1,55.39,70.47Z"/><path d="M20.26,30.23a29.85,29.85,0,0,0,5.63,9.55,21.29,21.29,0,0,0,2,1.9c.19.16.37.33.56.48a12.37,12.37,0,0,0,7.63,2.94,12.34,12.34,0,0,0,7.58-2.91c.15-.12.3-.26.46-.39a21.11,21.11,0,0,0,2.05-2,29.85,29.85,0,0,0,5.71-9.65c1.08-.32,2.22-2.38,2.68-5,.5-2.85,0-5.34-1.06-5.75-.05-.93-.14-1.86-.27-2.8C52.76,8.58,50.3,5,46.66,3.36A16.38,16.38,0,0,0,36.05,0,16.53,16.53,0,0,0,25.48,3.28C21.47,5,18.84,9,18.69,18.5c0,.3,0,.6-.06.9-1.19.23-1.73,2.82-1.2,5.79C17.91,27.95,19.14,30.07,20.26,30.23Z"/><path d="M88.52,59.29l-2.72-.45a14.22,14.22,0,0,0-1-2.43l1.58-2.21a1.68,1.68,0,0,0-.11-2.26l-3.09-3.08a1.69,1.69,0,0,0-2.23-.14l-2.25,1.6a14.48,14.48,0,0,0-2.44-1l-.45-2.68a1.68,1.68,0,0,0-1.68-1.52H69.78a1.67,1.67,0,0,0-1.67,1.48l-.45,2.72a14.4,14.4,0,0,0-2.44,1L63,48.73a1.68,1.68,0,0,0-1.06-.37,1.7,1.7,0,0,0-1.2.48l-3.08,3.08a1.67,1.67,0,0,0-.14,2.23l1.61,2.24a14.44,14.44,0,0,0-1,2.43l-2.68.45A1.68,1.68,0,0,0,53.91,61v4.36A1.67,1.67,0,0,0,55.39,67l2.72.46a14.6,14.6,0,0,0,1,2.43L57.55,72.1a1.68,1.68,0,0,0,.11,2.26l3.08,3.08a1.68,1.68,0,0,0,1.19.5,1.65,1.65,0,0,0,1-.36L65.21,76a14.28,14.28,0,0,0,2.44,1l.44,2.68a1.69,1.69,0,0,0,1.68,1.52h4.36a1.67,1.67,0,0,0,1.67-1.48L76.26,77a14.26,14.26,0,0,0,2.44-1l2.21,1.58a1.67,1.67,0,0,0,1.06.37,1.7,1.7,0,0,0,1.2-.48l3.08-3.08a1.67,1.67,0,0,0,.14-2.23l-1.6-2.24a14.22,14.22,0,0,0,1-2.44L88.48,67A1.67,1.67,0,0,0,90,65.32V61A1.67,1.67,0,0,0,88.52,59.29ZM72,70.36a7.22,7.22,0,1,1,7.22-7.22A7.22,7.22,0,0,1,72,70.36Z"/></g></g></svg>