<?xml version="1.0" encoding="utf-8"?>
<!-- Generator: Adobe Illustrator 21.0.2, SVG Export Plug-In . SVG Version: 6.00 Build 0)  -->
<svg version="1.1" id="Layer_1" xmlns="http://www.w3.org/2000/svg" xmlns:xlink="http://www.w3.org/1999/xlink" x="0px" y="0px"
	 viewBox="0 0 86.8 78" style="enable-background:new 0 0 86.8 78;" xml:space="preserve">
<g>
	<path d="M79.8,19.6h-8.3V0H15.3v19.6H7c-3.9,0-7,3.1-7,7v2v27.2c0,3.9,3.1,7,7,7h8.3V78h56.2V62.8h8.3c3.9,0,7-3.1,7-7V28.6v-2
		C86.8,22.8,83.7,19.6,79.8,19.6z M79.8,56.8h-8.3V54h1.9c1.7,0,3-1.3,3-3s-1.3-3-3-3h-1.9H15.3h-1.9c-1.7,0-3,1.3-3,3s1.3,3,3,3
		h1.9v2.8H7c-0.5,0-1-0.5-1-1V35.5c0.3,0,0.7,0.1,1,0.1h72.8c0.3,0,0.7,0,1-0.1v20.2C80.8,56.3,80.4,56.8,79.8,56.8z M21.3,72V54
		h44.2v18H21.3z M6,26.6c0-0.5,0.5-1,1-1h8.3h56.2h8.3c0.5,0,1,0.5,1,1v2c0,0.5-0.5,1-1,1H7c-0.5,0-1-0.5-1-1V26.6z M21.3,6h44.2
		v13.6H21.3V6z"/>
</g>
</svg>
