<?xml version="1.0" encoding="utf-8"?>
<!-- Generator: Adobe Illustrator 21.0.2, SVG Export Plug-In . SVG Version: 6.00 Build 0)  -->
<svg version="1.1"
	 id="Layer_1" xmlns:cc="http://creativecommons.org/ns#" xmlns:dc="http://purl.org/dc/elements/1.1/" xmlns:inkscape="http://www.inkscape.org/namespaces/inkscape" xmlns:rdf="http://www.w3.org/1999/02/22-rdf-syntax-ns#" xmlns:sodipodi="http://sodipodi.sourceforge.net/DTD/sodipodi-0.dtd" xmlns:svg="http://www.w3.org/2000/svg"
	 xmlns="http://www.w3.org/2000/svg" xmlns:xlink="http://www.w3.org/1999/xlink" x="0px" y="0px" viewBox="0 0 74 90"
	 style="enable-background:new 0 0 74 90;" xml:space="preserve">
<g transform="translate(0,-952.36218)">
	<path d="M59,952.4c-8.2,0-15,6.8-15,15c0,1.5,0.2,2.9,0.6,4.2l-20.3,14.1c-2.6-2-5.8-3.3-9.3-3.3c-8.2,0-15,6.8-15,15s6.8,15,15,15
		c3.5,0,6.7-1.2,9.3-3.3l20.3,14.1c-0.4,1.3-0.6,2.8-0.6,4.2c0,8.2,6.8,15,15,15s15-6.8,15-15c0-8.2-6.8-15-15-15
		c-4.6,0-8.8,2.1-11.6,5.5l-19.2-13.4c1.1-2.1,1.8-4.5,1.8-7.1c0-2.6-0.7-5-1.8-7.1c7-4.5,12.2-8.9,19.3-13.4
		c2.8,3.3,6.9,5.5,11.6,5.5c8.2,0,15-6.8,15-15S67.2,952.4,59,952.4L59,952.4z M59,958.4c5,0,9,4,9,9s-4,9-9,9s-9-4-9-9
		S54,958.4,59,958.4z M15,988.4c5,0,9,4,9,9s-4,9-9,9s-9-4-9-9S10,988.4,15,988.4z M59,1018.4c5,0,9,4,9,9s-4,9-9,9s-9-4-9-9
		S54,1018.4,59,1018.4z"/>
</g>
</svg>
